{
  "accessors": [
    {
      "bufferView": 2,
      "componentType": 5126,
      "count": 4788,
      "max": [
        1.7061545848846436,
        1.0221303701400757,
        0.8015923500061035
      ],
      "min": [
        -1.7061545848846436,
        -1.2971388101577759,
        -0.8015923500061035
      ],
      "type": "VEC3"
    },
    {
      "bufferView": 2,
      "byteOffset": 57456,
      "componentType": 5126,
      "count": 4788,
      "max": [
        0.9999996423721313,
        0.999993085861206,
        0.9999999403953552
      ],
      "min": [
        -0.9999996423721313,
        -1.0,
        -1.0
      ],
      "type": "VEC3"
    },
    {
      "bufferView": 1,
      "componentType": 5126,
      "count": 4788,
      "max": [
        0.5352527499198914,
        0.97907954454422
      ],
      "min": [
        0.036059994250535965,
        0.5924122929573059
      ],
      "type": "VEC2"
    },
    {
      "bufferView": 0,
      "componentType": 5125,
      "count": 26880,
      "type": "SCALAR"
    },
    {
      "bufferView": 2,
      "byteOffset": 114912,
      "componentType": 5126,
      "count": 2820,
      "max": [
        0.8623449802398682,
        1.1218111515045166,
        0.8015923500061035
      ],
      "min": [
        -0.8623449802398682,
        -0.801592230796814,
        -0.8015923500061035
      ],
      "type": "VEC3"
    },
    {
      "bufferView": 2,
      "byteOffset": 148752,
      "componentType": 5126,
      "count": 2820,
      "max": [
        0.9997210502624512,
        1.0,
        1.0
      ],
      "min": [
        -0.999721109867096,
        -1.0,
        -1.0
      ],
      "type": "VEC3"
    },
    {
      "bufferView": 1,
      "byteOffset": 38304,
      "componentType": 5126,
      "count": 2820,
      "max": [
        0.5205373764038086,
        0.5833855271339417
      ],
      "min": [
        0.024840403348207474,
        0.10019365698099136
      ],
      "type": "VEC2"
    },
    {
      "bufferView": 0,
      "byteOffset": 107520,
      "componentType": 5125,
      "count": 15744,
      "type": "SCALAR"
    },
    {
      "bufferView": 2,
      "byteOffset": 182592,
      "componentType": 5126,
      "count": 2374,
      "max": [
        1.058822512626648,
        -0.04569045081734657,
        1.0020314455032349
      ],
      "min": [
        -1.058822512626648,
        -0.9162160158157349,
        -0.04747821390628815
      ],
      "type": "VEC3"
    },
    {
      "bufferView": 2,
      "byteOffset": 211080,
      "componentType": 5126,
      "count": 2374,
      "max": [
        0.9953228831291199,
        0.9981269836425781,
        0.9993734955787659
      ],
      "min": [
        -0.9953230023384094,
        -0.9976851940155029,
        -0.999563992023468
      ],
      "type": "VEC3"
    },
    {
      "bufferView": 1,
      "byteOffset": 60864,
      "componentType": 5126,
      "count": 2374,
      "max": [
        0.9756415486335754,
        0.7175847887992859
      ],
      "min": [
        0.8139482736587524,
        0.5448800325393677
      ],
      "type": "VEC2"
    },
    {
      "bufferView": 0,
      "byteOffset": 170496,
      "componentType": 5125,
      "count": 13440,
      "type": "SCALAR"
    },
    {
      "bufferView": 2,
      "byteOffset": 239568,
      "componentType": 5126,
      "count": 676,
      "max": [
        0.7361794114112854,
        0.9464788436889648,
        0.23898769915103912
      ],
      "min": [
        -0.7361794114112854,
        0.5950162410736084,
        0.10451974719762802
      ],
      "type": "VEC3"
    },
    {
      "bufferView": 2,
      "byteOffset": 247680,
      "componentType": 5126,
      "count": 676,
      "max": [
        0.9928867816925049,
        0.9956400394439697,
        0.9976016879081726
      ],
      "min": [
        -0.9928867816925049,
        -0.9948843121528625,
        -0.9979516267776489
      ],
      "type": "VEC3"
    },
    {
      "bufferView": 1,
      "byteOffset": 79856,
      "componentType": 5126,
      "count": 676,
      "max": [
        0.331518292427063,
        0.15384513139724731
      ],
      "min": [
        0.26228177547454834,
        0.06785104423761368
      ],
      "type": "VEC2"
    },
    {
      "bufferView": 0,
      "byteOffset": 224256,
      "componentType": 5125,
      "count": 3648,
      "type": "SCALAR"
    },
    {
      "bufferView": 2,
      "byteOffset": 255792,
      "componentType": 5126,
      "count": 990,
      "max": [
        0.5390772819519043,
        0.9249989986419678,
        0.8635739684104919
      ],
      "min": [
        -0.5390772819519043,
        -0.38844746351242065,
        0.22165904939174652
      ],
      "type": "VEC3"
    },
    {
      "bufferView": 2,
      "byteOffset": 267672,
      "componentType": 5126,
      "count": 990,
      "max": [
        0.9912556409835815,
        0.9863991141319275,
        0.9999639391899109
      ],
      "min": [
        -0.9912558197975159,
        -0.9996784925460815,
        -0.9999966621398926
      ],
      "type": "VEC3"
    },
    {
      "bufferView": 1,
      "byteOffset": 85264,
      "componentType": 5126,
      "count": 990,
      "max": [
        0.2387285977602005,
        0.0968904122710228
      ],
      "min": [
        0.06539832800626755,
        0.033162593841552734
      ],
      "type": "VEC2"
    },
    {
      "bufferView": 0,
      "byteOffset": 238848,
      "componentType": 5125,
      "count": 5280,
      "type": "SCALAR"
    },
    {
      "bufferView": 2,
      "byteOffset": 279552,
      "componentType": 5126,
      "count": 394,
      "max": [
        0.3070932626724243,
        2.606381893157959,
        0.806108832359314
      ],
      "min": [
        -0.30709323287010193,
        2.438863515853882,
        0.706265926361084
      ],
      "type": "VEC3"
    },
    {
      "bufferView": 2,
      "byteOffset": 284280,
      "componentType": 5126,
      "count": 394,
      "max": [
        1.0,
        0.9971827864646912,
        0.9985918402671814
      ],
      "min": [
        -1.0,
        -0.9971834421157837,
        -0.998591959476471
      ],
      "type": "VEC3"
    },
    {
      "bufferView": 1,
      "byteOffset": 93184,
      "componentType": 5126,
      "count": 394,
      "max": [
        0.6682971715927124,
        0.9542357921600342
      ],
      "min": [
        0.5598756074905396,
        0.5205495357513428
      ],
      "type": "VEC2"
    },
    {
      "bufferView": 0,
      "byteOffset": 259968,
      "componentType": 5125,
      "count": 1920,
      "type": "SCALAR"
    },
    {
      "bufferView": 2,
      "byteOffset": 289008,
      "componentType": 5126,
      "count": 532,
      "max": [
        0.4800717830657959,
        2.9594032764434814,
        0.7051945328712463
      ],
      "min": [
        -0.4800717532634735,
        2.8382341861724854,
        0.6231631636619568
      ],
      "type": "VEC3"
    },
    {
      "bufferView": 2,
      "byteOffset": 295392,
      "componentType": 5126,
      "count": 532,
      "max": [
        0.9920449256896973,
        0.9987095594406128,
        0.9996470212936401
      ],
      "min": [
        -0.9920452833175659,
        -0.9994286298751831,
        -0.9999204277992249
      ],
      "type": "VEC3"
    },
    {
      "bufferView": 1,
      "byteOffset": 96336,
      "componentType": 5126,
      "count": 532,
      "max": [
        0.9528369903564453,
        0.468200147151947
      ],
      "min": [
        0.4698522388935089,
        0.033280130475759506
      ],
      "type": "VEC2"
    },
    {
      "bufferView": 0,
      "byteOffset": 267648,
      "componentType": 5125,
      "count": 2688,
      "type": "SCALAR"
    },
    {
      "bufferView": 2,
      "byteOffset": 301776,
      "componentType": 5126,
      "count": 161,
      "max": [
        0.8577722907066345,
        0.8487562537193298,
        0.8437644243240356
      ],
      "min": [
        -0.8527740240097046,
        -0.328404039144516,
        -0.8567386865615845
      ],
      "type": "VEC3"
    },
    {
      "bufferView": 2,
      "byteOffset": 303708,
      "componentType": 5126,
      "count": 161,
      "max": [
        0.9910730719566345,
        0.9994688630104065,
        0.994024932384491
      ],
      "min": [
        -0.9992655515670776,
        -0.999436616897583,
        -0.9969102740287781
      ],
      "type": "VEC3"
    },
    {
      "bufferView": 1,
      "byteOffset": 100592,
      "componentType": 5126,
      "count": 161,
      "max": [
        0.8865726590156555,
        0.9891092777252197
      ],
      "min": [
        0.6776583790779114,
        0.571280837059021
      ],
      "type": "VEC2"
    },
    {
      "bufferView": 0,
      "byteOffset": 278400,
      "componentType": 5125,
      "count": 768,
      "type": "SCALAR"
    },
    {
      "bufferView": 2,
      "byteOffset": 305640,
      "componentType": 5126,
      "count": 1272,
      "max": [
        1.8061628341674805,
        0.14285266399383545,
        0.12960706651210785
      ],
      "min": [
        -1.8061628341674805,
        -0.705553412437439,
        -0.4018024802207947
      ],
      "type": "VEC3"
    },
    {
      "bufferView": 2,
      "byteOffset": 320904,
      "componentType": 5126,
      "count": 1272,
      "max": [
        0.9071866273880005,
        0.9956862926483154,
        0.9994747638702393
      ],
      "min": [
        -0.9071854948997498,
        -0.9952398538589478,
        -0.9988906383514404
      ],
      "type": "VEC3"
    },
    {
      "bufferView": 1,
      "byteOffset": 101880,
      "componentType": 5126,
      "count": 1272,
      "max": [
        1.0,
        1.0
      ],
      "min": [
        0.0,
        0.0
      ],
      "type": "VEC2"
    },
    {
      "bufferView": 0,
      "byteOffset": 281472,
      "componentType": 5125,
      "count": 6900,
      "type": "SCALAR"
    },
    {
      "bufferView": 2,
      "byteOffset": 336168,
      "componentType": 5126,
      "count": 985,
      "max": [
        0.9166668653488159,
        0.9166667461395264,
        0.8754944801330566
      ],
      "min": [
        -0.9166667461395264,
        -0.9166668057441711,
        -15.153491020202637
      ],
      "type": "VEC3"
    },
    {
      "bufferView": 2,
      "byteOffset": 347988,
      "componentType": 5126,
      "count": 985,
      "max": [
        1.0,
        1.0,
        1.0
      ],
      "min": [
        -1.0,
        -1.0,
        -1.0
      ],
      "type": "VEC3"
    },
    {
      "bufferView": 1,
      "byteOffset": 112056,
      "componentType": 5126,
      "count": 985,
      "max": [
        0.9250698089599609,
        0.3326427936553955
      ],
      "min": [
        0.5499083995819092,
        0.05095875263214111
      ],
      "type": "VEC2"
    },
    {
      "bufferView": 0,
      "byteOffset": 309072,
      "componentType": 5125,
      "count": 5376,
      "type": "SCALAR"
    }
  ],
  "asset": {
    "extras": {
      "author": "Qiara (https://sketchfab.com/Qikiee)",
      "license": "CC-BY-4.0 (http://creativecommons.org/licenses/by/4.0/)",
      "source": "https://sketchfab.com/3d-models/tiger-character-06ad04516f544a0d8d49f369de493e13",
      "title": "Tiger Character"
    },
    "generator": "Sketchfab-14.64.0",
    "version": "2.0"
  },
  "bufferViews": [
    {
      "buffer": 0,
      "byteLength": 330576,
      "name": "floatBufferViews",
      "target": 34963
    },
    {
      "buffer": 0,
      "byteLength": 119936,
      "byteOffset": 330576,
      "byteStride": 8,
      "name": "floatBufferViews",
      "target": 34962
    },
    {
      "buffer": 0,
      "byteLength": 359808,
      "byteOffset": 450512,
      "byteStride": 12,
      "name": "floatBufferViews",
      "target": 34962
    }
  ],
  "buffers": [
    {
      "byteLength": 810320,
      "uri": "scene.bin"
    }
  ],
  "images": [
    {
      "uri": "textures/Material_baseColor.png"
    }
  ],
  "materials": [
    {
      "doubleSided": true,
      "name": "Material",
      "pbrMetallicRoughness": {
        "baseColorTexture": {
          "index": 0
        },
        "metallicFactor": 0.0,
        "roughnessFactor": 0.7
      }
    },
    {
      "doubleSided": true,
      "name": "Material.003",
      "pbrMetallicRoughness": {
        "baseColorTexture": {
          "index": 0
        },
        "metallicFactor": 0.0,
        "roughnessFactor": 0.5
      }
    },
    {
      "doubleSided": true,
      "name": "Material.005",
      "pbrMetallicRoughness": {
        "baseColorTexture": {
          "index": 0
        },
        "metallicFactor": 0.0,
        "roughnessFactor": 0.5
      }
    },
    {
      "doubleSided": true,
      "name": "Material.004",
      "pbrMetallicRoughness": {
        "baseColorTexture": {
          "index": 0
        },
        "metallicFactor": 0.0,
        "roughnessFactor": 0.5
      }
    },
    {
      "doubleSided": true,
      "name": "Material.001",
      "pbrMetallicRoughness": {
        "baseColorFactor": [
          0.013968,
          0.013968,
          0.013968,
          1.0
        ],
        "metallicFactor": 0.0,
        "roughnessFactor": 0.5
      }
    },
    {
      "doubleSided": true,
      "name": "Material.002",
      "pbrMetallicRoughness": {
        "baseColorFactor": [
          0.093059,
          0.0241576,
          0.00242822,
          1.0
        ],
        "metallicFactor": 0.0,
        "roughnessFactor": 0.7
      }
    }
  ],
  "meshes": [
    {
      "name": "Object_0",
      "primitives": [
        {
          "attributes": {
            "NORMAL": 1,
            "POSITION": 0,
            "TEXCOORD_0": 2
          },
          "indices": 3,
          "material": 0,
          "mode": 4
        }
      ]
    },
    {
      "name": "Object_1",
      "primitives": [
        {
          "attributes": {
            "NORMAL": 5,
            "POSITION": 4,
            "TEXCOORD_0": 6
          },
          "indices": 7,
          "material": 0,
          "mode": 4
        }
      ]
    },
    {
      "name": "Object_2",
      "primitives": [
        {
          "attributes": {
            "NORMAL": 9,
            "POSITION": 8,
            "TEXCOORD_0": 10
          },
          "indices": 11,
          "material": 1,
          "mode": 4
        }
      ]
    },
    {
      "name": "Object_3",
      "primitives": [
        {
          "attributes": {
            "NORMAL": 13,
            "POSITION": 12,
            "TEXCOORD_0": 14
          },
          "indices": 15,
          "material": 2,
          "mode": 4
        }
      ]
    },
    {
      "name": "Object_4",
      "primitives": [
        {
          "attributes": {
            "NORMAL": 17,
            "POSITION": 16,
            "TEXCOORD_0": 18
          },
          "indices": 19,
          "material": 3,
          "mode": 4
        }
      ]
    },
    {
      "name": "Object_5",
      "primitives": [
        {
          "attributes": {
            "NORMAL": 21,
            "POSITION": 20,
            "TEXCOORD_0": 22
          },
          "indices": 23,
          "material": 4,
          "mode": 4
        }
      ]
    },
    {
      "name": "Object_6",
      "primitives": [
        {
          "attributes": {
            "NORMAL": 25,
            "POSITION": 24,
            "TEXCOORD_0": 26
          },
          "indices": 27,
          "material": 5,
          "mode": 4
        }
      ]
    },
    {
      "name": "Object_7",
      "primitives": [
        {
          "attributes": {
            "NORMAL": 29,
            "POSITION": 28,
            "TEXCOORD_0": 30
          },
          "indices": 31,
          "material": 5,
          "mode": 4
        }
      ]
    },
    {
      "name": "Object_8",
      "primitives": [
        {
          "attributes": {
            "NORMAL": 33,
            "POSITION": 32,
            "TEXCOORD_0": 34
          },
          "indices": 35,
          "material": 4,
          "mode": 4
        }
      ]
    },
    {
      "name": "Object_9",
      "primitives": [
        {
          "attributes": {
            "NORMAL": 37,
            "POSITION": 36,
            "TEXCOORD_0": 38
          },
          "indices": 39,
          "material": 0,
          "mode": 4
        }
      ]
    }
  ],
  "nodes": [
    {
      "children": [
        1
      ],
      "matrix": [
        1.0,
        0.0,
        0.0,
        0.0,
        0.0,
        2.220446049250313e-16,
        -1.0,
        0.0,
        0.0,
        1.0,
        2.220446049250313e-16,
        0.0,
        0.0,
        0.0,
        0.0,
        1.0
      ],
      "name": "Sketchfab_model"
    },
    {
      "children": [
        2
      ],
      "name": "root"
    },
    {
      "children": [
        3,
        5,
        7,
        9,
        11,
        13,
        15,
        17,
        19,
        21
      ],
      "matrix": [
        1.0,
        0.0,
        0.0,
        0.0,
        0.0,
        2.220446049250313e-16,
        1.0,
        0.0,
        0.0,
        -1.0,
        2.220446049250313e-16,
        0.0,
        0.0,
        0.0,
        0.0,
        1.0
      ],
      "name": "GLTF_SceneRootNode"
    },
    {
      "children": [
        4
      ],
      "matrix": [
        0.7559367418289185,
        0.0,
        0.0,
        0.0,
        0.0,
        0.7559367418289185,
        0.0,
        0.0,
        0.0,
        0.0,
        0.6738986968994141,
        0.0,
        0.0,
        0.9877133369445801,
        0.0,
        1.0
      ],
      "name": "body_0"
    },
    {
      "mesh": 0,
      "name": "Object_4"
    },
    {
      "children": [
        6
      ],
      "matrix": [
        1.1890207529067993,
        0.0,
        0.0,
        0.0,
        0.0,
        1.0,
        0.0,
        0.0,
        0.0,
        0.0,
        1.0,
        0.0,
        0.0,
        2.4586520195007324,
        0.0,
        1.0
      ],
      "name": "head_1"
    },
    {
      "mesh": 1,
      "name": "Object_6"
    },
    {
      "children": [
        8
      ],
      "matrix": [
        1.0811938047409058,
        0.0,
        0.0,
        0.0,
        0.0,
        0.8960252404212952,
        0.0,
        0.0,
        0.0,
        0.0,
        0.9135484099388123,
        0.0,
        0.0,
        2.4586520195007324,
        0.0,
        1.0
      ],
      "name": "head 2_2"
    },
    {
      "mesh": 2,
      "name": "Object_8"
    },
    {
      "children": [
        10
      ],
      "matrix": [
        1.1890207529067993,
        0.0,
        0.0,
        0.0,
        0.0,
        1.0,
        0.0,
        0.0,
        0.0,
        0.0,
        1.0,
        0.0,
        0.0,
        2.4586520195007324,
        0.0,
        1.0
      ],
      "name": "ear 2_3"
    },
    {
      "mesh": 3,
      "name": "Object_10"
    },
    {
      "children": [
        12
      ],
      "matrix": [
        0.7559367418289185,
        0.0,
        0.0,
        0.0,
        0.0,
        0.7559367418289185,
        0.0,
        0.0,
        0.0,
        0.0,
        0.6738986968994141,
        0.0,
        0.0,
        0.9877133369445801,
        0.0,
        1.0
      ],
      "name": "body 2_4"
    },
    {
      "mesh": 4,
      "name": "Object_12"
    },
    {
      "children": [
        14
      ],
      "name": "eyes_5"
    },
    {
      "mesh": 5,
      "name": "Object_14"
    },
    {
      "children": [
        16
      ],
      "matrix": [
        1.0,
        0.0,
        0.0,
        0.0,
        0.0,
        1.0,
        0.0,
        0.0,
        0.0,
        0.0,
        1.0,
        0.0,
        0.0,
        0.0,
        -0.03562106192111969,
        1.0
      ],
      "name": "eyebrown_6"
    },
    {
      "mesh": 6,
      "name": "Object_16"
    },
    {
      "children": [
        18
      ],
      "matrix": [
        0.12656235112618497,
        -0.0031891474833096083,
        0.0003031383371335827,
        0.0,
        0.003200326934856858,
        0.12640371338109052,
        -0.006336436545142778,
        0.0,
        -7.583445441610767e-05,
        0.0033621977906653816,
        0.06703319567531056,
        0.0,
        -0.010345661081373692,
        2.2859439849853516,
        0.8972892165184021,
        1.0
      ],
      "name": "nose_7"
    },
    {
      "mesh": 7,
      "name": "Object_18"
    },
    {
      "children": [
        20
      ],
      "matrix": [
        0.09396487474441528,
        0.0,
        0.0,
        0.0,
        0.0,
        0.09225099011757253,
        0.01786483999539847,
        0.0,
        0.0,
        -0.01786483999539847,
        0.09225099011757253,
        0.0,
        0.0,
        2.1596856117248535,
        0.9043851494789124,
        1.0
      ],
      "name": "mouth_8"
    },
    {
      "mesh": 8,
      "name": "Object_20"
    },
    {
      "children": [
        22
      ],
      "matrix": [
        0.07851099967956543,
        0.0,
        0.0,
        0.0,
        0.0,
        0.07851099967956543,
        0.0,
        0.0,
        0.0,
        0.0,
        0.07851099967956543,
        0.0,
        0.0,
        0.8067153096199036,
        -0.5089989304542542,
        1.0
      ],
      "name": "tail_9"
    },
    {
      "mesh": 9,
      "name": "Object_22"
    }
  ],
  "samplers": [
    {
      "magFilter": 9729,
      "minFilter": 9987,
      "wrapS": 10497,
      "wrapT": 10497
    }
  ],
  "scene": 0,
  "scenes": [
    {
      "name": "Sketchfab_Scene",
      "nodes": [
        0
      ]
    }
  ],
  "textures": [
    {
      "sampler": 0,
      "source": 0
    }
  ]
}
