<svg t="1713432660192" class="icon" viewBox="0 0 1024 1024" version="1.1" xmlns="http://www.w3.org/2000/svg" p-id="1060" width="200" height="200"><path d="M527.02194121 414.66829663h-1.34569196c-89.45840058 0.80339821-186.12730034 82.04705116-290.0267854 243.81129788a154.79476723 154.79476723 0 0 0 25.30704649 197.49538657l17.09229883 15.76669166a126.23395707 126.23395707 0 0 0 85.72259873 33.48162327c25.24679089 0 50.61409295-7.55194403 72.4866103-22.87676575l9.03823189-6.32676195a129.68856966 129.68856966 0 0 1 74.47502109-23.45923032 129.74882525 129.74882525 0 0 1 74.23400264 23.29855094l5.82463774 4.05716062a125.33013375 125.33013375 0 0 0 71.74346894 22.51523746 125.45064362 125.45064362 0 0 0 82.30815436-30.70989903l24.38313839-21.08920519a157.12462155 157.12462155 0 0 0 29.38429314-203.4204494c-99.25985987-155.05587171-192.77542107-232.54363677-280.62702518-232.54363676m0 64.61330749c28.27961962 0 60.17453253 14.54150958 94.82108361 43.26299912 41.39509691 34.30510756 85.60208885 87.97211399 131.3957925 159.47456192a92.53139883 92.53139883 0 0 1-17.31323381 119.80677003l-24.30279805 21.04903566-0.04017083 0.02008476v0.02008476a61.05827108 61.05827108 0 0 1-74.83655065 3.97682156l-5.82463774-4.03707585a193.63907486 193.63907486 0 0 0-111.15015506-34.90765556 193.59890403 193.59890403 0 0 0-111.51168336 35.14867529h-0.02008476l-0.04016952 0.02008476-8.99806108 6.30667718a61.4599702 61.4599702 0 0 1-35.42986456 11.18732078c-15.58592751 0-30.48896537-5.82463774-41.91730715-16.34915492l-17.11238362-15.78677642a90.04086382 90.04086382 0 0 1-14.76244324-115.08680711c48.2038983-75.01731611 94.5198096-131.45604678 137.66229758-167.7093943 36.25334753-30.46888061 69.35335776-46.0748929 98.41629214-46.39625166h0.9640776m-370.16576482-126.21387231c-24.92543213 0-48.08338843 8.99806109-64.43254334 25.00577247-33.60213314 32.93932955-27.55656175 99.68164374 7.43143416 143.50702006 19.06062487 23.86092942 46.59710186 37.2776807 74.97714529 37.27768071 23.72033481 0 48.04321761-9.37967543 68.50979002-29.84624654 44.99030413-44.99030413 40.06948971-99.92266347-7.43143418-143.50702006-24.36305363-22.41481237-52.70292884-32.43720665-79.05439195-32.43720664m713.11641271-16.85127913c-36.95632194 0-74.71604209 22.6558321-99.01884015 55.03278316-32.57780126 43.34333817-27.79758147 104.28109939 32.37695235 139.97206843l0.02008476 0.02008475c17.41365761 10.32366828 33.94357797 14.82269882 49.28848447 14.82269882 37.75972016 0 68.24868554-27.15486263 86.60633728-61.52022449 25.80917068-48.36457767 14.26032032-117.41666143-32.43720664-139.99215317a83.81452699 83.81452699 0 0 0-36.83581207-8.3352575M353.00586971 100.61990243c-3.81614219 0-7.71262342 0.26110449-11.64927417 0.80339821C281.22223253 109.89915276 252.21955374 179.39310513 252.21955374 257.20223025c0 71.0605793 36.55462283 126.675827 107.51477702 126.6758257 6.72846105 0 13.75819611-0.48203946 21.08920519-1.5264561 84.83886017-11.89029518 110.12582189-79.85779018 89.1772113-155.77892959-19.58283385-70.8998999-62.38387827-125.97285259-116.99487754-125.97285259M665.6884872 95.37772796c-54.26955445 0.02008476-101.83073392 56.88059932-120.16829962 126.65574223-19.82385357 75.53952508-1.44611705 148.76927931 82.81027856 163.59197811 10.12281807 1.80764665 19.6029186 2.67129914 28.48046983 2.67129916 65.07526218 0 97.3116186-47.07914001 105.32551733-128.08177324C771.21485343 168.14552879 739.13917638 107.14751328 679.32617345 96.60291005a78.33133408 78.33133408 0 0 0-13.63768625-1.20509734M156.87626115 417.66095455c11.97063424 0 24.52373301 5.4831929 35.34952551 15.42524812 11.04672615 10.14290413 17.47391319 20.44648635 17.63459257 28.27961962 0.20085021 8.33525748-7.55194403 17.33331858-12.19156919 21.97294374-7.23058527 7.23058527-14.92312391 10.9262163-22.83659754 10.92621628-8.97797632 0-17.89569707-4.74005027-24.50364825-12.99496741a73.91264388 73.91264388 0 0 1-15.38507732-38.86439238c-0.90382333-11.58901988 1.94824126-17.39357285 2.71146996-18.19697107 4.15758572-4.09733143 11.34800146-6.54769561 19.2012195-6.5476969m713.11641271-16.83119437a19.28155854 19.28155854 0 0 1 8.7369566 1.88798698c2.5909601 1.24526685 5.30242877 5.42293862 7.08999063 10.90613153a55.07295267 55.07295267 0 0 1-3.55503771 40.49127358c-8.71687184 16.34915491-20.62725178 27.33562678-29.58514204 27.33562807-4.09733143 0-9.39976019-1.80764665-15.38507732-5.20200495l-0.98416365-0.60254801c-8.15449334-4.82038931-18.31748094-12.75394769-20.36614601-23.03744644-1.36577671-6.98956554 1.00424842-15.00346297 6.66820547-22.555407 12.91462707-17.2128087 32.39703582-29.22361247 47.40049879-29.22361376M352.98578495 165.21312516c8.57627722 0 17.35340334 7.89338885 23.19812582 14.52142351 12.99496741 14.72227372 24.18228819 37.47853091 31.53338332 64.01075948 6.72846105 24.42330791 6.06565746 46.13514717-1.74739105 58.04552711-5.6840431 8.6365315-17.15255313 14.20006474-34.14442818 16.59017465a87.36956468 87.36956468 0 0 1-12.13131362 0.90382332c-17.77518721 0-25.20662138-6.48744133-29.6654824-12.15139838-8.41559653-10.64502704-13.23598714-28.84199941-13.23598714-49.9312046 0-29.22361247 5.34259828-56.13745538 14.62184992-73.89255911 8.6365315-16.46966478 16.10813648-17.51408272 18.92002894-17.91578184a19.84393833 19.84393833 0 0 1 2.65121439-0.20084891m312.68261749-5.20200365c0.80339821 0 1.60679644 0.08034034 2.41019465 0.22093366 6.98956554 1.22518208 14.36074413 4.15758572 20.94861056 17.03204457 5.12166462 10.02239426 13.07530775 33.28077438 8.79721217 76.62411255-3.7558866 38.04090941-12.75394769 54.45031989-17.77518721 60.85742087-2.81189377 3.57512245-7.02973506 8.97797632-23.2583814 8.97797632a100.62563659 100.62563659 0 0 1-17.273063-1.70722153c-21.97294373-3.8563117-27.71724113-12.8543728-29.62531286-15.82694723-8.7369566-13.61760149-9.43992972-38.96481748-1.90807045-67.72647657 6.44727181-24.54381778 18.03629169-47.25990544 31.81457256-62.30353793 9.23908081-10.12281807 18.89994548-16.14830599 25.86942498-16.14830471" fill="#444444" p-id="1061"></path><path d="M708.10791728 732.8943613c-6.44727181 0-12.65352259-2.57087404-17.19272396-7.15024492l-84.15597051-84.75851983a24.22245901 24.22245901 0 0 1 34.36536184-34.14442817l84.15597182 84.75852112a24.22245901 24.22245901 0 0 1-17.17263919 41.2946718m-128.46338758-128.48347235c-6.50752609 0-12.75394769-2.61104486-17.31323381-7.25067002l-29.46463219-30.0671802a24.22245901 24.22245901 0 0 1 34.5862968-33.9234932l29.46463219 30.06718149a24.22245901 24.22245901 0 0 1-17.27306299 41.17416193" fill="#444444" p-id="1062"></path><path d="M156.87626115 417.66095455c11.97063424 0 24.52373301 5.46310814 35.34952551 15.40516336 11.04672615 10.14290413 17.47391319 20.44648635 17.63459257 28.29970438 0.20085021 8.31517273-7.55194403 17.33331858-12.19156919 21.95285898-7.23058527 7.23058527-14.92312391 10.9262163-22.83659754 10.92621629-8.97797632 0-17.89569707-4.74005027-24.50364825-12.99496743a73.91264388 73.91264388 0 0 1-15.38507732-38.86439237c-0.90382333-11.58901988 1.94824126-17.39357285 2.71146996-18.19697108 4.15758572-4.09733143 11.34800146-6.52761085 19.2012195-6.52761213" fill="#F8D02D" p-id="1063"></path><path d="M869.9725891 400.80967541a19.28155854 19.28155854 0 0 1 8.7369566 1.88798569c2.5909601 1.26535291 5.30242877 5.44302338 7.08999063 10.92621759a55.07295267 55.07295267 0 0 1-3.55503771 40.49127358c-8.71687184 16.34915491-20.62725178 27.31554203-29.58514204 27.31554201-4.09733143 0-9.39976019-1.78756059-15.38507732-5.20200366l-0.98416365-0.58246324c-8.15449334-4.84047536-18.31748094-12.77403245-20.36614601-23.05753121-1.36577671-6.98956554 1.00424842-15.00346297 6.66820547-22.55540699 12.91462707-17.2128087 32.39703582-29.22361247 47.40049879-29.22361377" fill="#F8D02D" p-id="1064"></path><path d="M353.00586971 165.19304039c8.57627722 0 17.35340334 7.91347361 23.19812582 14.54150828 12.99496741 14.72227372 24.18228819 37.45844614 31.53338332 64.01075948 6.72846105 24.42330791 6.06565746 46.11506241-1.74739105 58.04552711-5.6840431 8.6365315-17.15255313 14.20006474-34.14442689 16.59017465a87.36956468 87.36956468 0 0 1-12.13131492 0.90382332c-17.77518721 0-25.20662138-6.50752609-29.66548238-12.15139838-8.41559653-10.64502704-13.23598714-28.84199941-13.23598715-49.9312046 0-29.24369853 5.34259828-56.15754143 14.62184992-73.91264388 8.6365315-16.46966478 16.10813648-17.51408272 18.92002896-17.91578183a19.84393833 19.84393833 0 0 1 2.65121437-0.2008489" fill="#F8D02D" p-id="1065"></path><path d="M665.6884872 159.99103674c0.80339821 0 1.60679644 0.06025428 2.41019465 0.2008489 6.98956554 1.24526685 14.36074413 4.15758572 20.94861056 17.05212933 5.12166462 10.00230821 13.07530775 33.28077438 8.79721218 76.60402779-3.7558866 38.04090941-12.75394769 54.47040465-17.77518722 60.85742088-2.81189377 3.57512245-7.02973506 8.97797632-23.2583814 8.97797502a100.62563659 100.62563659 0 0 1-17.273063-1.68713548c-21.97294373-3.87639648-27.71724113-12.8543728-29.62531286-15.82694723-8.7369566-13.63768625-9.43992972-38.96481748-1.90807045-67.74656133 6.44727181-24.54381778 18.03629169-47.23981939 31.81457257-62.30353793 9.23908081-10.10273331 18.89994548-16.12822124 25.86942497-16.12821995" fill="#F8D02D" p-id="1066"></path></svg>