<svg t="1713433134967" class="icon" viewBox="0 0 1024 1024" version="1.1" xmlns="http://www.w3.org/2000/svg" p-id="1091" width="200" height="200"><path d="M958.35679605 812.95425739l-31.69029688 43.28935979-95.48514292-51.98865699-312.76044642 183.30661928c-6.62803595 4.97102697-14.70595476 7.45654045-22.78387358 7.45654043-8.28504494 0-16.57008987-2.69263961-23.61237808-7.8707927l-161.35125017-89.47848533-67.31599013-38.52545896 27.3406483-14.70595476V455.66169442c0.20712613-8.69929718 2.27838736-17.39859437 6.42090983-25.06226094 6.2137837-8.90642331 14.08457639-15.74158539 23.40525195-20.09123398l1.65700899-0.82850448 273.61360909-156.58734933 37.0755761-21.1268646v-34.3829365l55.50980107 32.51880138v1.86413512l183.09949315 107.29133194c7.45654045 8.49217106 12.01331517 20.91973847 12.01331515 31.06891852v388.77573373l94.86376455 53.85279211z" fill="#B3C8FE" p-id="1092"></path><path d="M863.4930315 759.10146528V370.32573155c0-10.14918005-4.55677472-22.57674747-12.01331515-31.06891852-3.5211441-4.55677472-8.07791882-7.87079269-13.04894578-9.52780167l-170.05054737-99.62766539-55.50980107-32.51880138-87.20009798-50.95302637V28.9818801h-55.50980109v117.64763812L157.81432889 325.17223664c-9.32067555 4.34964859-17.19146825 11.18481067-23.40525195 20.09123397-4.14252247 7.66366657-6.2137837 16.36296375-6.42090983 25.06226094v388.77573373l-103.97731397 56.13117947 34.38293649 48.26038675 97.1421519-54.68129659 87.82147634 50.331648 67.31599013 38.52545896 161.35125017 89.47848533c7.04228819 5.17815309 15.32733314 7.87079269 23.61237808 7.8707927 8.07791882 0 16.15583763-2.48551348 22.78387358-7.45654043l312.76044642-183.30661928 95.48514292 51.98865699 31.69029688-43.28935979-94.86376455-53.85279211z m-404.93157135 146.23104317l-187.86339398-101.69892662-75.18678281-40.80384633-4.14252247-330.98754528 79.32930528 45.36062103 187.86339398 107.70558422v320.42411298z m35.21144099-388.56860762l-191.5916642-107.08420581-78.08654855-43.70361205 273.61360909-157.20872772 78.08654855 44.32499044 195.52706054 110.81247604-277.54900543 152.8590791z m306.54666271 230.73850154l-267.39982538 155.3445926V585.11552158l269.47108662-150.994944-2.07126124 313.38182479z" fill="#5186F5" p-id="1093"></path></svg>