<svg t="1713431516865" class="icon" viewBox="0 0 1024 1024" version="1.1" xmlns="http://www.w3.org/2000/svg" p-id="1065" width="200" height="200"><path d="M552 400a48 48 0 1 0-48 48 48 48 0 0 0 48-48z m301.8-204.6l-328-120.9a39.7 39.7 0 0 0-27.6 0l-328 120.9a39.9 39.9 0 0 0-26.2 37.5v411.4a39.9 39.9 0 0 0 14.7 30.9l328 267.8a40.1 40.1 0 0 0 50.6 0l328-267.8a39.9 39.9 0 0 0 14.7-30.9V232.9a39.9 39.9 0 0 0-26.2-37.5zM632 620a4 4 0 0 1-4 4h-92v76a4 4 0 0 1-4 4h-56a4 4 0 0 1-4-4V507.4a112 112 0 1 1 64 0V560h92a4 4 0 0 1 4 4z" p-id="1066"></path></svg>