<svg t="1713202559431" class="icon" viewBox="0 0 1433 1024" version="1.1"
  xmlns="http://www.w3.org/2000/svg" p-id="965" width="200" height="200">
  <path
    d="M1297.066667 0H136.533333a136.533333 136.533333 0 0 0-136.533333 136.533333v750.933334a136.533333 136.533333 0 0 0 136.533333 136.533333h1160.533334a136.533333 136.533333 0 0 0 136.533333-136.533333V136.533333a136.533333 136.533333 0 0 0-136.533333-136.533333z"
    fill="#E02600" p-id="966"></path>
  <path
    d="M375.330133 493.568l-100.352 52.770133 19.114667-111.752533-81.1008-79.189333 112.162133-16.1792 50.176-101.717334 50.107734 101.717334 112.162133 16.1792-81.237333 79.189333 19.2512 111.684267-100.283734-52.701867zM614.4 204.8h68.266667v68.266667H614.4V204.8z m68.266667 136.533333h68.266666v68.266667h-68.266666V341.333333z m0 136.533334h68.266666v68.266666h-68.266666V477.866667zM614.4 614.4h68.266667v68.266667H614.4V614.4z"
    fill="#FFE000" p-id="967"></path>
</svg>