{ "asset": { "version": "2.0", "generator": "THREE.GLTFExporter" }, "scenes": [{ "name": "AuxScene", "nodes": [4] }], "scene": 0, "nodes": [{ "mesh": 0 }, { "mesh": 1 }, { "mesh": 2 }, { "mesh": 3 }, { "children": [0, 1, 2, 3] }], "bufferViews": [{ "buffer": 0, "byteOffset": 0, "byteLength": 18432, "target": 34962, "byteStride": 12 }, { "buffer": 0, "byteOffset": 18432, "byteLength": 18432, "target": 34962, "byteStride": 12 }, { "buffer": 0, "byteOffset": 36864, "byteLength": 12288, "target": 34962, "byteStride": 8 }, { "buffer": 0, "byteOffset": 49152, "byteLength": 100224, "target": 34962, "byteStride": 12 }, { "buffer": 0, "byteOffset": 149376, "byteLength": 100224, "target": 34962, "byteStride": 12 }, { "buffer": 0, "byteOffset": 249600, "byteLength": 66816, "target": 34962, "byteStride": 8 }, { "buffer": 0, "byteOffset": 316416, "byteLength": 31104, "target": 34962, "byteStride": 12 }, { "buffer": 0, "byteOffset": 347520, "byteLength": 31104, "target": 34962, "byteStride": 12 }, { "buffer": 0, "byteOffset": 378624, "byteLength": 20736, "target": 34962, "byteStride": 8 }, { "buffer": 0, "byteOffset": 399360, "byteLength": 9504, "target": 34962, "byteStride": 12 }, { "buffer": 0, "byteOffset": 408864, "byteLength": 9504, "target": 34962, "byteStride": 12 }, { "buffer": 0, "byteOffset": 418368, "byteLength": 6336, "target": 34962, "byteStride": 8 }], "buffers": [{ "byteLength": 424704, "uri": "data:application/octet-stream;base64," }], "accessors": [{ "bufferView": 0, "componentType": 5126, "count": 1536, "max": [2.119832754135132, 38.507442474365234, -22.630632400512695], "min": [-2.119832992553711, 31.123830795288086, -36.54469299316406], "type": "VEC3" }, { "bufferView": 1, "componentType": 5126, "count": 1536, "max": [0.9984130263328552, 0.999481201171875, 0.9936216473579407], "min": [-0.9984130263328552, -0.999755859375, -0.9869380593299866], "type": "VEC3" }, { "bufferView": 2, "componentType": 5126, "count": 1536, "max": [0, 0], "min": [0, 0], "type": "VEC2" }, { "bufferView": 3, "componentType": 5126, "count": 8352, "max": [35.966651916503906, 37.690757751464844, 47.90609359741211], "min": [-35.966651916503906, -29.385305404663086, -47.90609359741211], "type": "VEC3" }, { "bufferView": 4, "componentType": 5126, "count": 8352, "max": [0.999755859375, 0.99969482421875, 1], "min": [-0.999755859375, -1, -1], "type": "VEC3" }, { "bufferView": 5, "componentType": 5126, "count": 8352, "max": [0.9965819120407104, 0.48713645339012146], "min": [-0.7404095530509949, -0.504379391670227], "type": "VEC2" }, { "bufferView": 6, "componentType": 5126, "count": 2592, "max": [18.506746292114258, -20.849205017089844, 10.164813041687012], "min": [-18.506746292114258, -38.507442474365234, -13.367152214050293], "type": "VEC3" }, { "bufferView": 7, "componentType": 5126, "count": 2592, "max": [0.9896542429924011, 0.99932861328125, 0.9857478737831116], "min": [-0.9896542429924011, -0.999969482421875, -1], "type": "VEC3" }, { "bufferView": 8, "componentType": 5126, "count": 2592, "max": [0.5713980793952942, 0.5072481632232666], "min": [0.3416547179222107, 0.35929441452026367], "type": "VEC2" }, { "bufferView": 9, "componentType": 5126, "count": 792, "max": [25.916027069091797, -15.018753051757812, 30.684701919555664], "min": [2.7272450923919678, -38.219757080078125, 7.652544975280762], "type": "VEC3" }, { "bufferView": 10, "componentType": 5126, "count": 792, "max": [0.9927670955657959, 0.9932859539985657, 0.9860530495643616], "min": [-0.9927670955657959, -0.9932859539985657, -0.9860530495643616], "type": "VEC3" }, { "bufferView": 11, "componentType": 5126, "count": 792, "max": [0.9614856243133545, 0.9614856243133545], "min": [0, 0], "type": "VEC2" }], "materials": [{ "pbrMetallicRoughness": { "baseColorFactor": [0.8483155801338889, 0.12355562576379255, 0.0007995356036640001, 1], "metallicFactor": 0.5, "roughnessFactor": 0.5 }, "name": "mat0" }, { "pbrMetallicRoughness": { "baseColorFactor": [0.9027467651032166, 0.4925971248502204, 0.0035170018802964903, 1], "metallicFactor": 0.5, "roughnessFactor": 0.5 }, "name": "mat1" }, { "pbrMetallicRoughness": { "baseColorFactor": [0.000625386996864, 0.000625386996864, 0.000625386996864, 1], "metallicFactor": 0.5, "roughnessFactor": 0.5 }, "name": "mat3" }, { "pbrMetallicRoughness": { "baseColorFactor": [0.8483155801338889, 0.12355562576379255, 0.0007995356036640001, 1], "metallicFactor": 0.5, "roughnessFactor": 0.5 }, "name": "mat4" }, { "pbrMetallicRoughness": { "baseColorFactor": [0.6038273388475408, 0.035205000594381405, 0.014182078669803165, 1], "metallicFactor": 0.5, "roughnessFactor": 0.5 }, "name": "mat2" }, { "pbrMetallicRoughness": { "baseColorFactor": [0.6038273388475408, 0.6038273388475408, 0.6038273388475408, 1], "metallicFactor": 0.5, "roughnessFactor": 0.5 }, "doubleSided": true, "name": "mat5" }], "meshes": [{ "primitives": [{ "mode": 4, "attributes": { "POSITION": 0, "NORMAL": 1, "TEXCOORD_0": 2 }, "material": 0 }, { "mode": 4, "attributes": { "POSITION": 0, "NORMAL": 1, "TEXCOORD_0": 2 }, "material": 1 }] }, { "primitives": [{ "mode": 4, "attributes": { "POSITION": 3, "NORMAL": 4, "TEXCOORD_0": 5 }, "material": 0 }, { "mode": 4, "attributes": { "POSITION": 3, "NORMAL": 4, "TEXCOORD_0": 5 }, "material": 1 }, { "mode": 4, "attributes": { "POSITION": 3, "NORMAL": 4, "TEXCOORD_0": 5 }, "material": 2 }, { "mode": 4, "attributes": { "POSITION": 3, "NORMAL": 4, "TEXCOORD_0": 5 }, "material": 3 }] }, { "primitives": [{ "mode": 4, "attributes": { "POSITION": 6, "NORMAL": 7, "TEXCOORD_0": 8 }, "material": 1 }, { "mode": 4, "attributes": { "POSITION": 6, "NORMAL": 7, "TEXCOORD_0": 8 }, "material": 4 }, { "mode": 4, "attributes": { "POSITION": 6, "NORMAL": 7, "TEXCOORD_0": 8 }, "material": 2 }] }, { "primitives": [{ "mode": 4, "attributes": { "POSITION": 9, "NORMAL": 10, "TEXCOORD_0": 11 }, "material": 5 }] }] }